<svg width="21" height="20" viewBox="0 0 21 20" fill="none" xmlns="http://www.w3.org/2000/svg">
<path id="Vector" d="M10.8516 20C8.07379 20 5.71267 19.0278 3.76823 17.0833C1.82378 15.1389 0.851562 12.7778 0.851562 10C0.851562 7.22222 1.82378 4.86111 3.76823 2.91667C5.71267 0.972222 8.07379 0 10.8516 0C11.1108 0 11.3656 0.00925936 11.616 0.0277779C11.8656 0.0462964 12.1108 0.074074 12.3516 0.111111C11.5923 0.648148 10.986 1.34704 10.5327 2.20778C10.0786 3.06926 9.85156 4 9.85156 5C9.85156 6.66667 10.4349 8.08333 11.6016 9.25C12.7682 10.4167 14.1849 11 15.8516 11C16.8701 11 17.8053 10.773 18.6571 10.3189C19.509 9.86556 20.2034 9.25926 20.7405 8.5C20.7775 8.74074 20.8053 8.98593 20.8238 9.23556C20.8423 9.48593 20.8516 9.74074 20.8516 10C20.8516 12.7778 19.8793 15.1389 17.9349 17.0833C15.9905 19.0278 13.6293 20 10.8516 20ZM10.8516 17.7778C12.4812 17.7778 13.9442 17.3289 15.2405 16.4311C16.5367 15.5326 17.4812 14.3611 18.0738 12.9167C17.7034 13.0093 17.333 13.0833 16.9627 13.1389C16.5923 13.1944 16.2219 13.2222 15.8516 13.2222C13.5738 13.2222 11.6338 12.4215 10.0316 10.82C8.43008 9.21778 7.62934 7.27778 7.62934 5C7.62934 4.62963 7.65712 4.25926 7.71267 3.88889C7.76823 3.51852 7.8423 3.14815 7.9349 2.77778C6.49045 3.37037 5.31934 4.31482 4.42156 5.61111C3.52304 6.90741 3.07378 8.37037 3.07378 10C3.07378 12.1481 3.83304 13.9815 5.35156 15.5C6.87008 17.0185 8.70341 17.7778 10.8516 17.7778Z" fill="#22252C"/>
</svg>
