<svg width="20" height="21" viewBox="0 0 20 21" fill="none" xmlns="http://www.w3.org/2000/svg">
<g id="Vector">
<path id="Vector_2" d="M8.88572 0.570739C4.2798 1.08175 0.575044 4.86319 0.0744011 9.46226C-0.526371 14.5723 2.57762 18.967 6.98328 20.3978V18.0472C6.98328 18.0472 6.58276 18.1494 6.08212 18.1494C4.68032 18.1494 4.07955 16.923 3.97942 16.2075C3.87929 15.7987 3.67903 15.4921 3.37865 15.1855C3.07826 15.0833 2.97813 15.0833 2.97813 14.9811C2.97813 14.7767 3.27852 14.7767 3.37865 14.7767C3.97942 14.7767 4.48006 15.4921 4.68032 15.7987C5.18096 16.6163 5.78173 16.8208 6.08212 16.8208C6.48263 16.8208 6.78302 16.7185 6.98328 16.6163C7.08341 15.9009 7.38379 15.1855 7.98456 14.7767C5.6816 14.2657 3.97942 12.9371 3.97942 10.6887C3.97942 9.56446 4.48006 8.44024 5.18096 7.62263C5.08083 7.41823 4.9807 6.90722 4.9807 6.19181C4.9807 5.78301 4.9807 5.1698 5.28109 4.55659C5.28109 4.55659 6.68289 4.55659 8.08469 5.88521C8.58534 5.68081 9.28624 5.5786 9.98714 5.5786C10.688 5.5786 11.3889 5.68081 11.9897 5.88521C13.2914 4.55659 14.7933 4.55659 14.7933 4.55659C14.9936 5.1698 14.9936 5.78301 14.9936 6.19181C14.9936 7.00942 14.8934 7.41823 14.7933 7.62263C15.4942 8.44024 15.9949 9.46225 15.9949 10.6887C15.9949 12.9371 14.2927 14.2657 11.9897 14.7767C12.5905 15.2877 12.991 16.2075 12.991 17.1274V20.5C17.0963 19.1714 20 15.2877 20 10.7909C20 4.65879 14.8934 -0.14467 8.88572 0.570739Z" fill="#F0E9F2"/>
</g>
</svg>
