<svg width="21" height="21" viewBox="0 0 21 21" fill="none" xmlns="http://www.w3.org/2000/svg">
<g id="Vector">
<path id="Vector_2" d="M0.5 0.5V20.5H20.5V0.5H0.5ZM17.1667 2.72222C17.78 2.72222 18.2778 3.22 18.2778 3.83333C18.2778 4.44667 17.78 4.94444 17.1667 4.94444C16.5533 4.94444 16.0556 4.44667 16.0556 3.83333C16.0556 3.22 16.5533 2.72222 17.1667 2.72222ZM10.5 4.94444C13.5678 4.94444 16.0556 7.43222 16.0556 10.5C16.0556 13.5678 13.5678 16.0556 10.5 16.0556C7.43222 16.0556 4.94444 13.5678 4.94444 10.5C4.94444 7.43222 7.43222 4.94444 10.5 4.94444ZM10.5 7.16667C9.61595 7.16667 8.7681 7.51786 8.14298 8.14298C7.51786 8.7681 7.16667 9.61595 7.16667 10.5C7.16667 11.3841 7.51786 12.2319 8.14298 12.857C8.7681 13.4821 9.61595 13.8333 10.5 13.8333C11.3841 13.8333 12.2319 13.4821 12.857 12.857C13.4821 12.2319 13.8333 11.3841 13.8333 10.5C13.8333 9.61595 13.4821 8.7681 12.857 8.14298C12.2319 7.51786 11.3841 7.16667 10.5 7.16667Z" fill="#F0E9F2"/>
</g>
</svg>
