<svg width="20" height="20" viewBox="0 0 20 20" fill="none" xmlns="http://www.w3.org/2000/svg">
<g id="Light mode" clip-path="url(#clip0_37_631)">
<path id="Vector" d="M9.99992 5.83337C7.69992 5.83337 5.83325 7.70004 5.83325 10C5.83325 12.3 7.69992 14.1667 9.99992 14.1667C12.2999 14.1667 14.1666 12.3 14.1666 10C14.1666 7.70004 12.2999 5.83337 9.99992 5.83337ZM9.16659 0.833374V4.16671H10.8333V0.833374H9.16659ZM9.16659 15.8334V19.1667H10.8333V15.8334H9.16659ZM19.1666 9.16671H15.8333V10.8334H19.1666V9.16671ZM4.16659 9.16671H0.833252V10.8334H4.16659V9.16671ZM13.5333 14.7167L15.5916 16.775L16.7666 15.6L14.7083 13.5417L13.5333 14.7167ZM3.22492 4.40004L5.28325 6.45837L6.45825 5.28337L4.39992 3.22504L3.22492 4.40004ZM5.28325 13.5334L3.22492 15.5917L4.39992 16.7667L6.45825 14.7084L5.28325 13.5334ZM15.5999 3.22504L13.5416 5.28337L14.7166 6.45837L16.7749 4.40004L15.5999 3.22504Z" fill="#F0E9F2"/>
</g>
<defs>
<clipPath id="clip0_37_631">
<rect width="20" height="20" fill="white"/>
</clipPath>
</defs>
</svg>
