<svg width="20" height="21" viewBox="0 0 20 21" fill="none" xmlns="http://www.w3.org/2000/svg">
<path id="Vector" d="M20 0.5H0V20.5H20V0.5ZM6.66667 16.0556H3.86333V8.27778H6.66667V16.0556ZM5.21556 6.85222C4.35889 6.85222 3.78667 6.28111 3.78667 5.51889C3.78667 4.75667 4.35778 4.18556 5.31 4.18556C6.16667 4.18556 6.73889 4.75667 6.73889 5.51889C6.73889 6.28111 6.16778 6.85222 5.21556 6.85222ZM16.6667 16.0556H13.9533V11.8044C13.9533 10.6289 13.23 10.3578 12.9589 10.3578C12.6878 10.3578 11.7833 10.5389 11.7833 11.8044C11.7833 11.9856 11.7833 16.0556 11.7833 16.0556H8.98V8.27778H11.7833V9.36333C12.1444 8.73 12.8678 8.27778 14.2244 8.27778C15.5811 8.27778 16.6667 9.36333 16.6667 11.8044V16.0556Z" fill="#F0E9F2"/>
</svg>
