<svg width="20" height="21" viewBox="0 0 20 21" fill="none" xmlns="http://www.w3.org/2000/svg">
<path id="Vector" d="M16.875 13H15.625C15.4592 13 15.3003 13.0658 15.1831 13.1831C15.0658 13.3003 15 13.4592 15 13.625V18H2.5V5.5H8.125C8.29076 5.5 8.44973 5.43415 8.56694 5.31694C8.68415 5.19973 8.75 5.04076 8.75 4.875V3.625C8.75 3.45924 8.68415 3.30027 8.56694 3.18306C8.44973 3.06585 8.29076 3 8.125 3H1.875C1.37772 3 0.900805 3.19754 0.549175 3.54917C0.197544 3.90081 0 4.37772 0 4.875L0 18.625C0 19.1223 0.197544 19.5992 0.549175 19.9508C0.900805 20.3025 1.37772 20.5 1.875 20.5H15.625C16.1223 20.5 16.5992 20.3025 16.9508 19.9508C17.3025 19.5992 17.5 19.1223 17.5 18.625V13.625C17.5 13.4592 17.4342 13.3003 17.3169 13.1831C17.1997 13.0658 17.0408 13 16.875 13ZM19.0625 0.5H14.0625C13.2277 0.5 12.8105 1.51211 13.3984 2.10156L14.7941 3.49727L5.27344 13.0145C5.18604 13.1016 5.11669 13.205 5.06937 13.319C5.02206 13.433 4.9977 13.5551 4.9977 13.6785C4.9977 13.8019 5.02206 13.9241 5.06937 14.038C5.11669 14.152 5.18604 14.2555 5.27344 14.3426L6.15898 15.2266C6.24608 15.314 6.34957 15.3833 6.46353 15.4306C6.57748 15.4779 6.69966 15.5023 6.82305 15.5023C6.94643 15.5023 7.06861 15.4779 7.18256 15.4306C7.29652 15.3833 7.40001 15.314 7.48711 15.2266L17.0031 5.70781L18.3984 7.10156C18.9844 7.6875 20 7.27734 20 6.4375V1.4375C20 1.18886 19.9012 0.950403 19.7254 0.774587C19.5496 0.598772 19.3111 0.5 19.0625 0.5Z" fill="#F0E9F2"/>
</svg>
